<svg id="Layer_1" enable-background="new 0 0 512 512" height="512" viewBox="0 0 512 512" width="512" xmlns="http://www.w3.org/2000/svg"><g><g><g><g><g><g id="XMLID_1436_"><g id="XMLID_1437_"><g id="XMLID_1438_"><g id="XMLID_1439_"><g id="XMLID_1440_"><g id="XMLID_1441_"><g id="XMLID_1442_"><g id="XMLID_1443_"><g id="XMLID_1444_"><g id="XMLID_1445_"><g id="XMLID_1446_"><g id="XMLID_1447_"><g id="XMLID_1448_"><g id="XMLID_2462_"><g id="XMLID_2508_"><circle cx="256" cy="256" fill="#494949" r="256"/></g></g></g></g></g></g></g></g></g></g></g></g></g></g></g></g></g></g></g><path d="m512 256c0-7.029-.295-13.989-.851-20.875l-182.375-182.375s-3.022 14.236-9.864 22.862c-5.379 6.781-11.757 14.852-11.757 14.852l-53.303-52.708s-2.452 78.929.862 88.818l-76.917-73.824-6.704 79.158 54.366 52.078-71.843 180.813 31.775 31.812-91.834 24.979 75.122 75.122c27.251 9.888 56.656 15.288 87.323 15.288 141.385 0 256-114.615 256-256z" fill="#303030"/><g><g><path d="m253.85 37.756s-37.379 23.764-27.001 44.844 19.027 49.308 19.027 49.308 29.98-15.492 29.693-34.382c-.287-18.891-18.934-45.08-21.719-59.77z" fill="#fff"/><path d="m177.795 52.75s-31.426 19.979-22.701 37.703c8.726 17.723 15.997 41.455 15.997 41.455s25.205-13.025 24.964-28.907-15.919-37.9-18.26-50.251z" fill="#fff"/><path d="m328.774 52.75s-31.426 19.979-22.701 37.703c8.725 17.723 15.997 41.455 15.997 41.455s25.205-13.025 24.964-28.907-15.919-37.9-18.26-50.251z" fill="#e2e2ea"/></g><g><path d="m406.609 342.252h-65.2v-30h65.2c21.888 0 39.695-17.808 39.695-39.695s-17.807-39.695-39.695-39.695h-65.2v-30h65.2c38.43 0 69.695 31.266 69.695 69.695s-31.265 69.695-69.695 69.695z" fill="#f4b503"/></g><path d="m264.225 396.735h-27.851c-68.091 0-123.29-55.199-123.29-123.29v-110.44h274.432v110.439c0 68.092-55.199 123.291-123.291 123.291z" fill="#fff"/><path d="m387.52 163.01v110.43c0 47.24-26.56 88.26-65.56 108.96-17.22 9.15-36.87 14.33-57.73 14.33h-13.93v-233.72z" fill="#e2e2ea"/><path d="m93.555 382.404h313.49v39.186h-313.49z" fill="#ffa42c"/><path d="m275.57 97.53c.22 14.32-16.95 26.68-25.27 31.83v-89.15c2.16-1.57 3.55-2.45 3.55-2.45 2.78 14.69 21.43 40.88 21.72 59.77z" fill="#e2e2ea"/><path d="m250.3 382.4h156.74v39.19h-156.74z" fill="#e87e00"/></g></g></svg>