<svg id="Capa_1" enable-background="new 0 0 512 512" height="512" viewBox="0 0 512 512" width="512" xmlns="http://www.w3.org/2000/svg"><g><g><g><path d="m311.03 283.002-9.284-18.811c-1.46-2.958-4.283-5.009-7.547-5.484l-20.759-3.016c-8.222-1.195-11.505-11.299-5.555-17.098l15.021-14.642c2.363-2.303 3.441-5.621 2.883-8.873l-3.546-20.675c-1.405-8.189 7.19-14.433 14.544-10.567l18.567 9.761c2.92 1.535 6.409 1.535 9.329 0l18.567-9.761c7.354-3.866 15.949 2.378 14.544 10.567l-3.546 20.675c-.558 3.252.52 6.57 2.883 8.873l15.021 14.642c5.95 5.799 2.667 15.903-5.555 17.098l-20.759 3.016c-3.265.474-6.087 2.525-7.547 5.484l-9.284 18.811c-3.676 7.451-14.3 7.451-17.977 0z" fill="#ffe266"/></g><g><path d="m314.716 314.073c-.438 3.075-1.628 6.086-3.612 8.753l-18.225 24.5c-6.882 9.252-18.127 14.008-29.347 12.41l-22.02-3.135c-11.22-1.598-20.691-9.303-24.717-20.109l-11.802-30.53-23.936 31.254c-6.342 8.525-18.393 10.295-26.918 3.953-8.525-6.341-10.295-18.393-3.954-26.919l18.225-24.5c6.883-9.253 18.129-14.008 29.348-12.41l22.02 3.135c11.22 1.598 20.691 9.303 24.717 20.109l10.807 31.68 24.932-32.403c6.342-8.525 18.393-10.295 26.918-3.953 5.857 4.357 8.526 11.412 7.564 18.165z" fill="#78eac4"/><path d="m204.993 305.961 1.243 3.215 10.559 27.315c3.46 9.288 10.945 16.281 20.103 19.079 5.626-6.932 10.945-14.105 16.162-21.359l.855-6.008-9.422-27.62c-3.625-9.728-11.664-16.941-21.417-19.449-5.298 7.461-12.671 17.451-18.083 24.827z" fill="#71afc4"/><g><path d="m239.42 364.532c-2.104 0-4.227-.641-6.06-1.972-4.614-3.352-5.637-9.809-2.285-14.423l16.902-23.268c3.352-4.613 9.809-5.637 14.423-2.285s5.637 9.809 2.285 14.423l-16.903 23.268c-2.02 2.781-5.169 4.257-8.362 4.257z" fill="#440a29"/></g></g><g><path d="m184.948 135.201c-1.49 2.888-3.702 5.456-6.58 7.409l-26.441 17.947c-9.985 6.777-22.735 7.61-33.276 2.172l-20.686-10.673c-10.54-5.439-17.251-16.312-17.514-28.378l-1.164-34.235-34.407 22.656c-9.201 6.245-21.721 3.848-27.966-5.352s-3.849-21.72 5.351-27.966l26.441-17.946c9.986-6.778 22.736-7.61 33.276-2.172l20.686 10.673c10.54 5.438 17.251 16.312 17.513 28.377l-.216 35.03 35.788-23.451c9.2-6.245 21.721-3.849 27.966 5.351 4.291 6.324 4.502 14.215 1.229 20.558z" fill="#ffa585"/><path d="m79.288 89.441.123 3.605 1.041 30.63c.225 10.37 5.217 19.857 13.308 25.772 7.945-4.917 18.554-11.331 26.206-16.705l.028-4.49.188-30.54c-.237-10.862-5.701-20.756-14.479-26.59-7.805 5.553-18.528 12.89-26.415 18.318z" fill="#ef7c85"/></g><g><path d="m499.846 503.069-109.801-270.587c-1.07-2.637-2.979-4.883-5.492-6.218-43.529-23.107-191.702 125.71-165.279 167.211 1.145 1.799 2.835 3.187 4.811 3.989l271.283 110.084c2.816 1.143 5.621-1.662 4.478-4.479z" fill="#ef8bbd"/><path d="m366.128 250.967-10.836 19.455 19.814 50.035 20.702 22.115-1.233 27.048 13.466 34.003c7.081 17.881-10.618 35.58-28.499 28.499l-150.836-59.734c-6.658-6.658-4.1-19.185 3.879-33.793-6.913 11.01-12.018 21.487-14.584 30.701l41.183 42.413 78.412 31.819 60.771 5.736 17.801 26.147 79.199 32.138c2.817 1.143 5.623-1.663 4.48-4.48l-19.34-47.66-26.617-19.707 6.327-30.294-20.249-49.9-25.993-23.258 6.097-25.772-20.249-49.9z" fill="#e068bd"/><path d="m439.968 355.508-19.896-49.029-202.069 62.817c-2.726 9.794-2.586 18.164 1.302 24.229 1.14 1.778 2.821 3.145 4.778 3.94l35.101 14.244z" fill="#8bb6ef"/><g fill="#8388ef"><path d="m259.185 411.708s38.55-11.984 38.55-11.984l-65.961-26.121c-2.943-1.166-5.296-3.558-6.19-6.595l-.018-.062-7.562 2.351c-2.726 9.795-2.586 18.164 1.302 24.229 1.14 1.778 2.821 3.145 4.778 3.94 0-.002 35.101 14.242 35.101 14.242z"/><path d="m375.106 320.457 19.469 49.162 45.393-14.111-19.896-49.029z"/></g><path d="m399.823 256.579-9.778-24.096c-1.071-2.64-2.984-4.888-5.501-6.223-24.2-12.83-80.718 27.442-121.616 72.875z" fill="#8bb6ef"/><path d="m390.047 232.488c-1.086-2.675-3.038-4.94-5.597-6.277-22.425-11.721-72.355 21.791-112.043 62.779 23.93-23.056 51.189-41.235 67.202-39.95 4.648.373 8.613 3.531 10.33 7.867l5.352 13.516 44.531-13.844z" fill="#8388ef"/><path d="m480.507 455.409-20.29-50.001-122.621 38.119 78.572 31.883z" fill="#8bb6ef"/><path d="m460.217 405.408-53.14 16.52c-4.909 9.189-16.18 14.69-27.535 10.193l-2.311-.915-39.634 12.321 78.571 31.884 64.339-20.001z" fill="#8388ef"/></g><g><path d="m77.11 317.346-18.361-10.143c-2.888-1.595-6.376-1.667-9.327-.193l-18.765 9.375c-7.432 3.713-15.896-2.708-14.323-10.866l3.973-20.597c.625-3.24-.384-6.579-2.699-8.93l-14.715-14.95c-5.828-5.921-2.337-15.955 5.908-16.979l20.817-2.587c3.274-.407 6.138-2.398 7.659-5.326l9.671-18.615c3.83-7.373 14.452-7.153 17.974.372l8.893 18.999c1.399 2.988 4.178 5.097 7.433 5.639l20.692 3.445c8.196 1.364 11.269 11.534 5.201 17.209l-15.321 14.328c-2.41 2.254-3.556 5.548-3.066 8.811l3.118 20.744c1.233 8.216-7.49 14.281-14.762 10.264z" fill="#ffe266"/></g><g><path d="m215.695 71.59 7.686-15.829c1.209-2.49 1.115-5.415-.25-7.822l-8.682-15.305c-3.439-6.062 1.566-13.436 8.47-12.478l17.429 2.418c2.741.38 5.494-.613 7.362-2.655l11.873-12.987c4.703-5.144 13.262-2.662 14.484 4.199l3.086 17.324c.485 2.725 2.28 5.036 4.8 6.181l16.02 7.279c6.345 2.883 6.63 11.79.482 15.073l-15.522 8.288c-2.441 1.304-4.085 3.725-4.395 6.475l-1.972 17.486c-.781 6.926-9.164 9.949-14.186 5.117l-12.679-12.201c-1.994-1.919-4.805-2.734-7.516-2.179l-17.239 3.528c-6.829 1.396-12.295-5.642-9.251-11.912z" fill="#78eac4"/></g><circle cx="377.653" cy="96.958" fill="#ffa585" r="25.834"/><g><path d="m283.951 332.25c-2.21 0-4.435-.706-6.317-2.164-4.508-3.492-5.331-9.978-1.838-14.486 2.076-2.679 4.029-5.042 5.972-7.223 3.793-4.258 10.321-4.634 14.578-.841 4.258 3.793 4.635 10.32.841 14.578-1.626 1.825-3.283 3.832-5.068 6.134-2.034 2.626-5.085 4.002-8.168 4.002z" fill="#fff"/></g><g><path d="m295.864 385.374c-1.783 0-3.589-.462-5.236-1.433-4.912-2.897-6.545-9.228-3.648-14.139l3.214-5.449c2.896-4.912 9.228-6.547 14.139-3.648 4.912 2.897 6.545 9.228 3.648 14.139l-3.214 5.449c-1.925 3.264-5.368 5.081-8.903 5.081z" fill="#fff"/></g></g><path d="m478.094 136.39 8.482 23.85c.363 1.021 1.082 1.83 1.989 2.239l21.189 9.546c2.994 1.349 2.994 6.118 0 7.467l-21.189 9.547c-.907.409-1.626 1.218-1.989 2.239l-8.482 23.85c-1.198 3.37-5.436 3.37-6.634 0l-8.482-23.85c-.363-1.021-1.082-1.83-1.989-2.239l-21.189-9.547c-2.994-1.349-2.994-6.118 0-7.467l21.189-9.546c.907-.409 1.626-1.218 1.989-2.239l8.482-23.85c1.198-3.37 5.436-3.37 6.634 0z" fill="#bdf4e3"/><path d="m92.254 374.423 6.292 17.691c.269.758.803 1.358 1.476 1.661l15.718 7.081c2.221 1.001 2.221 4.539 0 5.539l-15.718 7.081c-.673.303-1.206.904-1.476 1.661l-6.292 17.691c-.889 2.499-4.032 2.499-4.921 0l-6.292-17.691c-.269-.758-.803-1.358-1.476-1.661l-15.718-7.081c-2.221-1-2.221-4.539 0-5.539l15.718-7.081c.673-.303 1.206-.904 1.476-1.661l6.292-17.691c.889-2.499 4.032-2.499 4.921 0z" fill="#fef2a8"/><ellipse cx="206.235" cy="206.433" fill="#ffa585" rx="18.521" ry="18.521" transform="matrix(.682 -.732 .732 .682 -85.387 216.619)"/><circle cx="460.093" cy="50.452" fill="#ffe266" r="7.989"/></g></svg>